<svg 
    xmlns="http://www.w3.org/2000/svg"
    id="focus"
    style="fill:#ffffff;stroke:#000000;stroke-width:5;stroke-linejoin:round;"
    height="50" viewBox="0 0 512 512" width="50"
>
    <path overflow="visible" d="m24 152c13.255 0 24-10.745 24-24v-74c0-3.309 2.691-6 6-6h74c13.255 0 24-10.745 24-24s-10.745-24-24-24h-74c-29.775 0-54 24.224-54 54v74c0 13.255 10.745 24 24 24z"/>
    <path overflow="visible" d="m54 512h74c13.255 0 24-10.745 24-24s-10.745-24-24-24h-74c-3.309 0-6-2.691-6-6v-74c0-13.255-10.745-24-24-24s-24 10.745-24 24v74c0 29.776 24.225 54 54 54z"/>
    <path overflow="visible" d="m488 360c-13.255 0-24 10.745-24 24v74c0 3.309-2.691 6-6 6h-74c-13.255 0-24 10.745-24 24s10.745 24 24 24h74c29.775 0 54-24.224 54-54v-74c0-13.255-10.745-24-24-24z"/>
    <path overflow="visible" d="m458 0h-74c-13.255 0-24 10.745-24 24s10.745 24 24 24h74c3.309 0 6 2.691 6 6v74c0 13.255 10.745 24 24 24s24-10.745 24-24v-74c0-29.776-24.225-54-54-54z"/>
    <path overflow="visible" d="m256 168c-13.255 0-24 10.745-24 24v40h-40c-13.255 0-24 10.745-24 24s10.745 24 24 24h40v40c0 13.255 10.745 24 24 24s24-10.745 24-24v-40h40c13.255 0 24-10.745 24-24s-10.745-24-24-24h-40v-40c0-13.255-10.745-24-24-24z"/>
</svg>